<svg xmlns="http://www.w3.org/2000/svg" xmlns:xlink="http://www.w3.org/1999/xlink" viewBox="0,0,256,256" width="50px" height="50px"><g fill="#ffffff" fill-rule="nonzero" stroke="none" stroke-width="1" stroke-linecap="butt" stroke-linejoin="miter" stroke-miterlimit="10" stroke-dasharray="" stroke-dashoffset="0" font-family="none" font-weight="none" font-size="none" text-anchor="none" style="mix-blend-mode: normal"><g transform="scale(5.12,5.12)"><path d="M1,19c-0.36064,-0.0051 -0.69608,0.18438 -0.87789,0.49587c-0.18181,0.3115 -0.18181,0.69676 0,1.00825c0.18181,0.3115 0.51725,0.50097 0.87789,0.49587h11.5c0.84081,0 1.5,0.65919 1.5,1.5c0,0.84081 -0.65919,1.5 -1.5,1.5h-9.5c-1.64497,0 -3,1.35503 -3,3v3c-0.0051,0.36064 0.18438,0.69608 0.49587,0.87789c0.3115,0.18181 0.69676,0.18181 1.00825,0c0.3115,-0.18181 0.50097,-0.51725 0.49587,-0.87789v-3c0,-0.56503 0.43497,-1 1,-1h9.5c1.78508,0 3.21979,-1.38099 3.42188,-3.11523c0.05121,-0.12183 0.07776,-0.25261 0.07813,-0.38477c0,-1.92119 -1.57881,-3.5 -3.5,-3.5zM26,19c-1.64497,0 -3,1.35503 -3,3v6c0,0.56503 -0.43497,1 -1,1h-6c-0.36064,-0.0051 -0.69608,0.18438 -0.87789,0.49587c-0.18181,0.3115 -0.18181,0.69676 0,1.00825c0.18181,0.3115 0.51725,0.50097 0.87789,0.49587h6c1.64497,0 3,-1.35503 3,-3v-6c0,-0.56503 0.43497,-1 1,-1h6c0.36064,0.0051 0.69608,-0.18438 0.87789,-0.49587c0.18181,-0.3115 0.18181,-0.69676 0,-1.00825c-0.18181,-0.3115 -0.51725,-0.50097 -0.87789,-0.49587zM36,19c-0.36064,-0.0051 -0.69608,0.18438 -0.87789,0.49587c-0.18181,0.3115 -0.18181,0.69676 0,1.00825c0.18181,0.3115 0.51725,0.50097 0.87789,0.49587h10.5c0.84081,0 1.5,0.65919 1.5,1.5c0,0.84081 -0.65919,1.5 -1.5,1.5h-10.5c-0.36064,-0.0051 -0.69608,0.18438 -0.87789,0.49587c-0.18181,0.3115 -0.18181,0.69676 0,1.00825c0.18181,0.3115 0.51725,0.50097 0.87789,0.49587h10.5c0.84081,0 1.5,0.65919 1.5,1.5c0,0.84081 -0.65919,1.5 -1.5,1.5h-10.5c-0.36064,-0.0051 -0.69608,0.18438 -0.87789,0.49587c-0.18181,0.3115 -0.18181,0.69676 0,1.00825c0.18181,0.3115 0.51725,0.50097 0.87789,0.49587h10.5c1.92119,0 3.5,-1.57881 3.5,-3.5c0,-0.97693 -0.41055,-1.8627 -1.06445,-2.5c0.6539,-0.6373 1.06445,-1.52307 1.06445,-2.5c0,-1.92119 -1.57881,-3.5 -3.5,-3.5z"></path></g></g></svg>