<svg xmlns="http://www.w3.org/2000/svg" xmlns:xlink="http://www.w3.org/1999/xlink" viewBox="0,0,256,256" width="50px" height="50px"><g fill="#ffffff" fill-rule="nonzero" stroke="none" stroke-width="1" stroke-linecap="butt" stroke-linejoin="miter" stroke-miterlimit="10" stroke-dasharray="" stroke-dashoffset="0" font-family="none" font-weight="none" font-size="none" text-anchor="none" style="mix-blend-mode: normal"><g transform="scale(5.12,5.12)"><path d="M25.185,19.606c-1.612,0 -2.919,1.307 -2.919,2.919v4.981c0,0.911 -0.739,1.65 -1.65,1.65h-5.619v1.237h6.683c1.612,0 2.919,-1.307 2.919,-2.919v-4.981c0,-0.911 0.739,-1.65 1.65,-1.65h5.724v-1.237zM0,19.606v1.237h11.738c0.936,0 1.694,0.758 1.694,1.694c0,0.936 -0.758,1.694 -1.694,1.694h-8.819c-1.612,0 -2.919,1.307 -2.919,2.919v3.244h2.333v-3.276c0,-0.911 0.739,-1.65 1.65,-1.65h8.851c1.619,0 2.931,-1.312 2.931,-2.931c0,-1.619 -1.312,-2.931 -2.931,-2.931zM34.221,19.606v4.028c0,1.012 0.821,1.833 1.833,1.833h9.768c1.019,0 1.845,0.826 1.845,1.845c0,1.019 -0.826,1.845 -1.845,1.845h-11.601v1.237h12.697c1.702,0 3.082,-1.38 3.082,-3.082c0,-1.702 -1.38,-3.082 -3.082,-3.082h-9.628c-0.407,0 -0.737,-0.33 -0.737,-0.737v-2.651h13.023v-1.237h-15.355z"></path></g></g></svg>