<svg xmlns="http://www.w3.org/2000/svg" xmlns:xlink="http://www.w3.org/1999/xlink" viewBox="0,0,256,256" width="50px" height="50px"><g fill="#ffffff" fill-rule="nonzero" stroke="none" stroke-width="1" stroke-linecap="butt" stroke-linejoin="miter" stroke-miterlimit="10" stroke-dasharray="" stroke-dashoffset="0" font-family="none" font-weight="none" font-size="none" text-anchor="none" style="mix-blend-mode: normal"><g transform="scale(5.12,5.12)"><path d="M19.3125,4c-0.30078,0 -0.60547,-0.01172 -0.90625,0.1875c-0.30078,0.19922 -0.40625,0.51172 -0.40625,0.8125v36.59375c0,0.39844 0.28906,0.80078 0.6875,1l8,2.40625h0.3125c0.19922,0 0.39453,-0.08594 0.59375,-0.1875c0.30078,-0.19922 0.40625,-0.51172 0.40625,-0.8125v-30.59375c0.60156,0.30078 1,0.89453 1,1.59375v11.09375c0,0.30078 0.19922,0.71094 0.5,0.8125c0.19922,0.10156 1.69922,1 4.5,1c2.69922,0 6,-1.49219 6,-8.59375c0,-5.69922 -3.1875,-10.01953 -8.6875,-11.71875zM17,26.40625l-11.09375,4l-1.59375,0.59375c-2.69922,1.10156 -4.3125,2.88672 -4.3125,4.6875c0,3.80078 2.69922,6 7.5,6c2.60156,0 5.80078,-0.57422 9.5,-1.875v-3.8125c-0.89844,0.30078 -1.88672,0.69922 -2.6875,1c-1.60156,0.60156 -2.8125,0.8125 -3.8125,0.8125c-1.5,0 -2.19922,-0.51172 -2.5,-0.8125c-0.39844,-0.30078 -0.60156,-0.6875 -0.5,-1.1875c0.10156,-1 1.30078,-1.91797 3.5,-2.71875c0.5,-0.19922 3.89844,-1.39453 6,-2.09375zM36.5,28.90625c-2.39844,0.10156 -4.89844,0.48828 -7.5,1.1875v4.59375c1.10156,-0.39844 2.58594,-0.88672 4.6875,-1.6875c4.80078,-1.69922 6.80469,-1.51172 7.40625,-1.3125c1.19922,0.10156 1.70703,0.8125 1.90625,1.3125c0.5,1.5 -1.38672,2.1875 -4.1875,3.1875c-1.30078,0.5 -6.91406,2.5 -9.8125,3.5v4.625l15.5,-5.5l1.1875,-0.5c2,-0.69922 4.51172,-2.01172 4.3125,-4.3125c-0.10156,-2.19922 -2.78906,-3.30469 -4.6875,-3.90625c-2.80078,-0.89844 -5.8125,-1.28906 -8.8125,-1.1875z"></path></g></g></svg>